<svg xmlns="http://www.w3.org/2000/svg" viewBox="0 0 58.01 58.01"><defs><style>.cls-1{fill:#fff;}</style></defs><title>MobileIron</title><g id="Layer_2" data-name="Layer 2"><g id="Layer_1-2" data-name="Layer 1"><path class="cls-1" d="M39.43,55.86C38,48,33.43,27.15,25.72,15c-1.29,1.72-6,9-11,16.58L8.86,20.72,2,39.15l0,.43A28.81,28.81,0,0,0,29,58a29.89,29.89,0,0,0,10.72-2l.4-.4Z"/><path class="cls-1" d="M29,0A29.14,29.14,0,0,0,1.29,37.72c1-3.14,5.28-18,7.28-24.58l6.29,10.58s4-7.57,11-20.29c0,0,12.29,11.71,23,46.58l-.09.09L49,50A29,29,0,0,0,29,0Z"/></g></g></svg>