<svg xmlns="http://www.w3.org/2000/svg" viewBox="0 0 143.13 21.22"><defs><style>.cls-1,.cls-2{fill:#fff;}.cls-1{fill-rule:evenodd;}</style></defs><title>ServiceNow</title><g id="Layer_2" data-name="Layer 2"><g id="Layer_1-2" data-name="Layer 1"><path class="cls-1" d="M34.81,6.56a6.46,6.46,0,0,0-4,1.41V6.65H27.16v14.2H31v-9a4.34,4.34,0,0,1,3.4-1.75,4,4,0,0,1,1.5.25V6.65a4.11,4.11,0,0,0-1.08-.09"/><path class="cls-1" d="M1.74,16.53a5.75,5.75,0,0,0,3.91,1.41c1,0,1.83-.49,1.83-1.16,0-2.16-6.82-1.41-6.82-6,0-2.74,2.66-4.4,5.4-4.4a8.91,8.91,0,0,1,4.82,1.41L9.14,10.55a5,5,0,0,0-2.74-1c-1.08,0-1.91.42-1.91,1.17,0,1.82,6.81,1.08,6.81,6.06,0,2.74-2.66,4.4-5.65,4.4A9.43,9.43,0,0,1,0,19.27Z"/><path class="cls-1" d="M25.59,13.62c0-4-2.75-7.22-6.65-7.22-4.24,0-6.89,3.49-6.89,7.39a7.05,7.05,0,0,0,7.39,7.39,7.73,7.73,0,0,0,5.81-2.57l-2.16-2.16a5,5,0,0,1-3.57,1.66A3.74,3.74,0,0,1,15.7,14.7h9.8c0-.33.09-.66.09-1.08M15.87,12a3,3,0,0,1,3-2.49A2.87,2.87,0,0,1,21.68,12Z"/><polygon class="cls-1" points="44.94 15.37 48.85 6.65 52.75 6.65 46.27 20.85 43.61 20.85 37.13 6.65 41.12 6.65 44.94 15.37"/><path class="cls-1" d="M56,0a2.48,2.48,0,0,1,2.49,2.41,2.49,2.49,0,0,1-5,0A2.43,2.43,0,0,1,56,0"/><rect class="cls-2" x="54.08" y="6.65" width="3.82" height="14.21"/><path class="cls-1" d="M73.52,17.94A7.57,7.57,0,1,1,67.21,6.31a7.81,7.81,0,0,1,6,2.83l-2.66,2.41a4,4,0,0,0-3.24-1.66,3.82,3.82,0,0,0-3.82,3.9,3.75,3.75,0,0,0,3.9,3.9,4.1,4.1,0,0,0,3.41-1.91Z"/><path class="cls-1" d="M87.31,18.61a7.63,7.63,0,0,1-5.82,2.57,7.06,7.06,0,0,1-7.39-7.39c0-4,2.66-7.39,6.9-7.39,3.9,0,6.64,3.32,6.64,7.22a4.52,4.52,0,0,1-.08,1.08h-9.8a3.73,3.73,0,0,0,3.82,3.41,5,5,0,0,0,3.57-1.66ZM83.74,12a2.83,2.83,0,0,0-2.83-2.49,3,3,0,0,0-3,2.49Z"/><path class="cls-1" d="M89.14,20.85V6.65h3.65V7.81a6,6,0,0,1,4-1.41,6.32,6.32,0,0,1,4.9,2.32,7.31,7.31,0,0,1,1.5,5v7.22H99.35V13.37a3.44,3.44,0,0,0-.83-2.65,3,3,0,0,0-2.16-.83A4.37,4.37,0,0,0,93,11.63v9.22Z"/><path class="cls-1" d="M112.9,6.4a8.31,8.31,0,0,0-8.31,8.22,8.66,8.66,0,0,0,2.57,6.15,1.64,1.64,0,0,0,2.16.08,5.59,5.59,0,0,1,3.58-1.16,5.74,5.74,0,0,1,3.57,1.16,1.65,1.65,0,0,0,2.16-.16A8.29,8.29,0,0,0,112.9,6.4m-.09,12.46a4.06,4.06,0,0,1-4.15-4.16,4,4,0,0,1,4.15-4.15A4.07,4.07,0,0,1,117,14.7a4.07,4.07,0,0,1-4.16,4.16"/><polygon class="cls-1" points="128.6 20.85 125.77 20.85 120.12 6.65 123.94 6.65 127.02 14.79 130.09 6.65 133.25 6.65 136.24 14.79 139.31 6.65 143.13 6.65 137.49 20.85 134.66 20.85 131.67 12.79 128.6 20.85"/><polygon class="cls-2" points="141.06 19.11 141.06 19.36 140.56 19.36 140.56 20.85 140.23 20.85 140.23 19.36 139.73 19.36 139.73 19.11 141.06 19.11"/><polygon class="cls-2" points="142.22 20.19 142.88 19.11 143.13 19.11 143.13 20.85 142.8 20.85 142.8 19.85 142.3 20.6 142.05 20.6 141.64 19.85 141.64 20.85 141.31 20.85 141.31 19.11 141.56 19.11 142.22 20.19"/></g></g></svg>