<svg xmlns="http://www.w3.org/2000/svg" viewBox="0 0 57.43 57.43"><defs><style>.cls-1{fill:#fff;}</style></defs><title>Dell</title><g id="Layer_2" data-name="Layer 2"><g id="Layer_1-2" data-name="Layer 1"><g id="g14"><g id="g20"><path id="path22" class="cls-1" d="M11.15,32.52V24.91H13.4a3.64,3.64,0,0,1,3.45,3.81,3.63,3.63,0,0,1-3.45,3.8ZM13.4,35a6.32,6.32,0,0,0,6.12-4.73l7.15,5.58,7.15-5.58V35H42V32.52H36.69V22.39H33.82v4.73L27,32.48l-1.54-1.2,3.29-2.56,3.57-2.8-2-1.59-6.86,5.36-1.53-1.2,6.86-5.36-2-1.59-7.15,5.58a6.32,6.32,0,0,0-6.12-4.73H8.28V35Zm37.71-2.52V35H43V22.39h2.87V32.52Zm-22.39,22A25.85,25.85,0,1,1,54.56,28.72,25.84,25.84,0,0,1,28.72,54.56M28.72,0A28.72,28.72,0,1,0,57.43,28.72,28.72,28.72,0,0,0,28.72,0"/></g></g></g></g></svg>